<?xml version="1.0" encoding="UTF-8" standalone="no"?>
<!-- Created with Inkscape (http://www.inkscape.org/) -->

<svg
   width="150mm"
   height="38.59589mm"
   viewBox="0 0 150 38.595891"
   version="1.1"
   id="svg1"
   inkscape:version="1.4 (86a8ad7, 2024-10-11)"
   sodipodi:docname="R&amp;PI Logo.svg"
   xmlns:inkscape="http://www.inkscape.org/namespaces/inkscape"
   xmlns:sodipodi="http://sodipodi.sourceforge.net/DTD/sodipodi-0.dtd"
   xmlns="http://www.w3.org/2000/svg"
   xmlns:svg="http://www.w3.org/2000/svg">
  <sodipodi:namedview
     id="namedview1"
     pagecolor="#ffffff"
     bordercolor="#000000"
     borderopacity="0.25"
     inkscape:showpageshadow="2"
     inkscape:pageopacity="0.0"
     inkscape:pagecheckerboard="0"
     inkscape:deskcolor="#d1d1d1"
     inkscape:document-units="mm"
     inkscape:zoom="1.2587752"
     inkscape:cx="311.81103"
     inkscape:cy="-27.407594"
     inkscape:window-width="1920"
     inkscape:window-height="1094"
     inkscape:window-x="-11"
     inkscape:window-y="-11"
     inkscape:window-maximized="1"
     inkscape:current-layer="layer1" />
  <defs
     id="defs1">
    <clipPath
       clipPathUnits="userSpaceOnUse"
       id="clipPath214">
      <path
         d="M 0,708.661 H 311.811 V 0 H 0 Z"
         transform="translate(-109.27371,-304.39651)"
         id="path214" />
    </clipPath>
    <clipPath
       clipPathUnits="userSpaceOnUse"
       id="clipPath216">
      <path
         d="M 0,708.661 H 311.811 V 0 H 0 Z"
         transform="translate(-167.8906,-295.61971)"
         id="path216" />
    </clipPath>
    <clipPath
       clipPathUnits="userSpaceOnUse"
       id="clipPath218">
      <path
         d="M 0,708.661 H 311.811 V 0 H 0 Z"
         transform="translate(-215.84431,-287.30621)"
         id="path218" />
    </clipPath>
    <clipPath
       clipPathUnits="userSpaceOnUse"
       id="clipPath220">
      <path
         d="M 0,708.661 H 311.811 V 0 H 0 Z"
         transform="translate(-241.35751,-278.82521)"
         id="path220" />
    </clipPath>
    <clipPath
       clipPathUnits="userSpaceOnUse"
       id="clipPath222">
      <path
         d="M 0,708.661 H 311.811 V 0 H 0 Z"
         transform="translate(-272.14471,-278.82521)"
         id="path222" />
    </clipPath>
    <clipPath
       clipPathUnits="userSpaceOnUse"
       id="clipPath224">
      <path
         d="M 0,708.661 H 311.811 V 0 H 0 Z"
         transform="translate(-153.6994,-283.43771)"
         id="path224" />
    </clipPath>
    <clipPath
       clipPathUnits="userSpaceOnUse"
       id="clipPath226">
      <path
         d="M 0,708.661 H 311.811 V 0 H 0 Z"
         transform="translate(-161.4862,-285.842)"
         id="path226" />
    </clipPath>
    <clipPath
       clipPathUnits="userSpaceOnUse"
       id="clipPath228">
      <path
         d="M 0,708.661 H 311.811 V 0 H 0 Z"
         transform="translate(-118.14411,-280.56691)"
         id="path228" />
    </clipPath>
    <clipPath
       clipPathUnits="userSpaceOnUse"
       id="clipPath10-4">
      <path
         d="M 0,283.465 H 1243.198 V 0 H 0 Z"
         transform="translate(-1152.599,-216.68001)"
         id="path10-8" />
    </clipPath>
    <clipPath
       clipPathUnits="userSpaceOnUse"
       id="clipPath12-8">
      <path
         d="M 0,283.465 H 1243.198 V 0 H 0 Z"
         transform="translate(-1110.2627,-85.003602)"
         id="path12-2" />
    </clipPath>
    <clipPath
       clipPathUnits="userSpaceOnUse"
       id="clipPath14-4">
      <path
         d="M 0,283.465 H 1243.198 V 0 H 0 Z"
         transform="translate(-137.33881,-148.50631)"
         id="path14-5" />
    </clipPath>
    <clipPath
       clipPathUnits="userSpaceOnUse"
       id="clipPath16-5">
      <path
         d="M 0,283.465 H 1243.198 V 0 H 0 Z"
         transform="translate(-2.5000001e-6)"
         id="path16-17" />
    </clipPath>
    <clipPath
       clipPathUnits="userSpaceOnUse"
       id="clipPath18-1">
      <path
         d="M 0,283.465 H 1243.198 V 0 H 0 Z"
         transform="translate(-299.33838,-125.0917)"
         id="path18-15" />
    </clipPath>
    <clipPath
       clipPathUnits="userSpaceOnUse"
       id="clipPath20-27">
      <path
         d="M 0,283.465 H 1243.198 V 0 H 0 Z"
         transform="translate(-385.47281,-145.7506)"
         id="path20-6" />
    </clipPath>
    <clipPath
       clipPathUnits="userSpaceOnUse"
       id="clipPath22-1">
      <path
         d="M 0,283.465 H 1243.198 V 0 H 0 Z"
         transform="translate(-469.84324,-145.7506)"
         id="path22-42" />
    </clipPath>
    <clipPath
       clipPathUnits="userSpaceOnUse"
       id="clipPath24-3">
      <path
         d="M 0,283.465 H 1243.198 V 0 H 0 Z"
         transform="translate(-563.97761,-138.0982)"
         id="path24-2" />
    </clipPath>
    <clipPath
       clipPathUnits="userSpaceOnUse"
       id="clipPath26-2">
      <path
         d="M 0,283.465 H 1243.198 V 0 H 0 Z"
         transform="translate(-599.01544,-168.8578)"
         id="path26-1" />
    </clipPath>
    <clipPath
       clipPathUnits="userSpaceOnUse"
       id="clipPath28-68">
      <path
         d="M 0,283.465 H 1243.198 V 0 H 0 Z"
         transform="translate(-2.5000001e-6)"
         id="path28-5" />
    </clipPath>
    <clipPath
       clipPathUnits="userSpaceOnUse"
       id="clipPath30-7">
      <path
         d="M 0,283.465 H 1243.198 V 0 H 0 Z"
         transform="translate(-750.70939,-168.8578)"
         id="path30-61" />
    </clipPath>
    <clipPath
       clipPathUnits="userSpaceOnUse"
       id="clipPath32-8">
      <path
         d="M 0,283.465 H 1243.198 V 0 H 0 Z"
         transform="translate(-890.1653,-148.8101)"
         id="path32-9" />
    </clipPath>
    <clipPath
       clipPathUnits="userSpaceOnUse"
       id="clipPath34-2">
      <path
         d="M 0,283.465 H 1243.198 V 0 H 0 Z"
         transform="translate(-2.5000001e-6)"
         id="path34-79" />
    </clipPath>
    <clipPath
       clipPathUnits="userSpaceOnUse"
       id="clipPath36-5">
      <path
         d="M 0,283.465 H 1243.198 V 0 H 0 Z"
         transform="translate(-1038.6316,-125.0917)"
         id="path36-4" />
    </clipPath>
    <clipPath
       clipPathUnits="userSpaceOnUse"
       id="clipPath12-8-4">
      <path
         d="M 0,283.465 H 1243.198 V 0 H 0 Z"
         transform="translate(-1110.2627,-85.003602)"
         id="path12-2-8" />
    </clipPath>
    <clipPath
       clipPathUnits="userSpaceOnUse"
       id="clipPath12-8-5">
      <path
         d="M 0,283.465 H 1243.198 V 0 H 0 Z"
         transform="translate(-1110.2627,-85.003602)"
         id="path12-2-1" />
    </clipPath>
  </defs>
  <g
     inkscape:label="Layer 1"
     inkscape:groupmode="layer"
     id="layer1"
     transform="translate(-132.02708,-118.79792)">
    <path
       id="path213"
       d="m 0,0 c 8.595,0 15.562,-6.958 15.562,-15.539 0,-8.582 -6.967,-15.538 -15.562,-15.538 -8.594,0 -15.56,6.956 -15.56,15.538 C -15.56,-6.958 -8.594,0 0,0 M -0.075,3.884 C -10.782,3.843 -19.45,-4.837 -19.45,-15.539 c 0,-10.728 8.708,-19.423 19.451,-19.423 10.742,0 19.451,8.695 19.451,19.423 0,10.702 -8.668,19.382 -19.375,19.423 z"
       style="display:inline;fill:#ffffff;fill-opacity:1;fill-rule:nonzero;stroke:none"
       transform="matrix(0.73284159,0,0,-0.73284159,146.28085,121.64428)"
       clip-path="url(#clipPath214)" />
    <path
       id="path215"
       d="m 0,0 0.149,-12.242 c 0,-1.582 0.946,-3.075 2.441,-3.792 1.245,-0.568 2.938,-0.837 5.578,-0.837 h 9.066 c 5.478,0 8.117,1.524 8.117,4.629 V 0 c 0,3.167 -2.54,4.659 -8.018,4.659 H 8.168 C 5.528,4.659 3.885,4.39 2.74,3.823 1.045,3.016 0,1.553 0,0 m 10.36,0 h 4.731 c 1.943,0 2.541,-0.298 2.541,-1.463 v -9.436 c 0,-1.043 -0.598,-1.343 -2.541,-1.343 H 10.36 c -1.942,0 -2.54,0.328 -2.54,1.493 L 7.771,-1.463 C 7.771,-0.298 8.368,0 10.36,0"
       style="display:inline;fill:#ffffff;fill-opacity:1;fill-rule:nonzero;stroke:none"
       transform="matrix(0.73284159,0,0,-0.73284159,189.23773,128.07628)"
       clip-path="url(#clipPath216)" />
    <path
       id="path217"
       d="m 0,0 c 1.493,0 2.34,-0.42 2.34,-1.255 v -1.374 c 0,-0.835 -0.697,-1.224 -2.191,-1.224 h -8.07 V 0 Z M -15.691,13.048 V -8.481 H 2.537 c 4.832,0 7.573,1.732 7.573,4.836 v 2.181 C 10.11,-0.061 9.362,1.223 8.167,1.85 7.97,1.97 7.521,2.149 6.972,2.328 8.816,3.075 9.413,3.583 9.76,4.687 9.911,5.194 10.01,5.821 10.01,6.418 V 8.18 c 0,2 -0.199,2.598 -1.296,3.404 C 7.369,12.6 5.627,13.048 2.888,13.048 Z M -0.2,8.389 H 0.596 C 1.544,8.389 2.39,7.881 2.39,7.224 V 5.821 C 2.39,5.135 1.691,4.656 0.596,4.656 h -8.517 v 3.733 z"
       style="display:inline;fill:#ffffff;fill-opacity:1;fill-rule:nonzero;stroke:none"
       transform="matrix(0.73284159,0,0,-0.73284159,224.38022,134.16876)"
       clip-path="url(#clipPath218)" />
    <path
       id="path219"
       d="M 0,0 C -5.628,0 -8.615,1.522 -8.615,4.479 V 16.84 c 0,2.957 2.838,4.689 7.52,4.689 H 14.892 V 16.87 H 0.945 c -0.346,0 -0.645,-0.089 -0.994,-0.209 -0.497,-0.238 -0.797,-0.657 -0.797,-1.164 v -2.36 H 14.892 V 8.481 H -0.846 v -2.39 c 0,-0.955 0.646,-1.463 1.993,-1.463 H 14.892 V 0 Z"
       style="display:inline;fill:#ffffff;fill-opacity:1;fill-rule:nonzero;stroke:none"
       transform="matrix(0.73284159,0,0,-0.73284159,243.07734,140.38398)"
       clip-path="url(#clipPath220)" />
    <path
       id="path221"
       d="m 0,0 c -3.139,0 -5.231,0.418 -6.926,1.314 -1.541,0.806 -2.09,1.821 -2.09,3.941 v 16.274 h 7.769 V 5.613 c 0,-0.208 0.149,-0.448 0.498,-0.657 C -0.3,4.658 -0.152,4.628 2.09,4.628 H 14.341 V 0 Z"
       style="display:inline;fill:#ffffff;fill-opacity:1;fill-rule:nonzero;stroke:none"
       transform="matrix(0.73284159,0,0,-0.73284159,265.63949,140.38398)"
       clip-path="url(#clipPath222)" />
    <path
       id="path223"
       d="m 0,0 c 0,-0.035 0.007,-0.071 0.008,-0.107 v 0.105 z"
       style="display:inline;fill:#ffffff;fill-opacity:1;fill-rule:nonzero;stroke:none"
       transform="matrix(0.73284159,0,0,-0.73284159,178.83785,137.00375)"
       clip-path="url(#clipPath224)" />
    <path
       id="path225"
       d="m 0,0 c 0,1.305 -0.651,2.5 -1.703,3.165 -0.079,0.051 -0.156,0.105 -0.24,0.149 -0.199,0.12 -0.647,0.299 -1.195,0.479 1.842,0.745 2.618,1.262 2.788,2.355 0.079,1.18 0,0.004 0,0.004 v 4 c 0,2.747 -2.739,4.36 -7.421,4.36 h -10.691 c -2.169,-0.002 -7.338,0 -7.338,0 v -4.36 -17.169 h 7.67 v 8.499 l 8.02,-0.018 c 0.666,0 1.072,0.016 1.586,-0.254 0.514,-0.273 0.705,-0.685 0.705,-0.685 V -7.017 H 0.01 Z m -8.07,6.599 c 0,-0.866 -0.647,-1.225 -2.092,-1.225 h -7.968 v 4.479 h 7.669 c 1.544,0 2.391,-0.447 2.391,-1.284 z"
       style="display:inline;fill:#ffffff;fill-opacity:1;fill-rule:nonzero;stroke:none"
       transform="matrix(0.73284159,0,0,-0.73284159,184.54434,135.24177)"
       clip-path="url(#clipPath226)" />
    <path
       id="path227"
       d="m 0,0 c -0.349,0.069 -1.953,-0.07 -2.79,0.139 -0.838,0.209 -3.909,1.098 -4.395,1.672 -0.387,0.457 -0.628,1.045 -0.697,6.06 -0.07,5.015 0.314,6.118 0.558,6.478 0.297,0.439 2.628,0.81 2.79,1.184 0.138,0.319 0.07,2.368 -0.07,3.064 -0.14,0.697 -0.621,1.089 -1.256,1.324 -0.617,0.228 -2.999,0.173 -2.999,0.173 0,0 -2.382,0.055 -2.999,-0.173 -0.634,-0.235 -1.116,-0.627 -1.256,-1.324 -0.139,-0.696 -0.208,-2.745 -0.07,-3.064 0.162,-0.374 2.493,-0.745 2.791,-1.184 0.243,-0.36 0.627,-1.463 0.558,-6.478 -0.07,-5.015 -0.311,-5.603 -0.698,-6.06 -0.486,-0.574 -3.557,-1.463 -4.394,-1.672 -0.837,-0.209 -2.442,-0.07 -2.791,-0.139 -0.348,-0.07 -0.767,-0.975 -0.558,-1.324 0.21,-0.348 1.396,-0.348 1.396,-0.348 h 16.043 c 0,0 1.186,0 1.395,0.348 C 0.767,-0.975 0.349,-0.07 0,0"
       style="display:inline;fill:#ffffff;fill-opacity:1;fill-rule:nonzero;stroke:none"
       transform="matrix(0.73284159,0,0,-0.73284159,152.78143,139.1076)"
       clip-path="url(#clipPath228)" />
    <path
       id="path3-8"
       d="m 162.15811,150.49976 v 3.85793 h -0.50507 v -3.85793 z m 2.33518,0.76945 c 0.36804,0 0.66679,0.11178 0.89622,0.33529 0.22902,0.22356 0.3439,0.54536 0.3439,0.965 v 1.78819 h -0.49862 v -1.71511 c 0,-0.30197 -0.0762,-0.53356 -0.22772,-0.69421 -0.15052,-0.16014 -0.35679,-0.24072 -0.61898,-0.24072 -0.26651,0 -0.47822,0.0832 -0.63404,0.24929 -0.15623,0.16508 -0.23422,0.40621 -0.23422,0.72432 v 1.6764 h -0.50509 v -3.03259 h 0.50509 v 0.43199 c 0.0988,-0.15467 0.23422,-0.27404 0.40621,-0.35892 0.17183,-0.086 0.36108,-0.12893 0.56741,-0.12893 z m 4.04597,0.61469 c 0.0988,-0.17313 0.24722,-0.31809 0.44489,-0.43416 0.19783,-0.11594 0.42664,-0.17417 0.68777,-0.17417 0.26921,0 0.51367,0.0645 0.73289,0.19341 0.22044,0.12894 0.39331,0.31112 0.51799,0.54591 0.12582,0.2337 0.18898,0.50509 0.18898,0.81457 0,0.3068 -0.0634,0.5803 -0.18898,0.82102 -0.12478,0.23968 -0.29768,0.42554 -0.51799,0.5588 -0.21914,0.13205 -0.46368,0.19782 -0.73289,0.19782 -0.25788,0 -0.48573,-0.058 -0.68345,-0.17417 -0.19679,-0.11594 -0.34603,-0.2606 -0.44921,-0.43415 v 1.99667 h -0.50506 v -4.47046 h 0.50506 z m 2.05685,0.94566 c 0,-0.22772 -0.0463,-0.42609 -0.13752,-0.59535 -0.0918,-0.17027 -0.21654,-0.2998 -0.37397,-0.389 -0.15623,-0.0886 -0.3283,-0.13335 -0.5158,-0.13335 -0.18483,0 -0.35624,0.045 -0.5137,0.13543 -0.15623,0.0902 -0.28153,0.22149 -0.3761,0.39334 -0.0936,0.17183 -0.1396,0.37073 -0.1396,0.59533 0,0.22954 0.0463,0.42986 0.1396,0.60179 0.0946,0.1708 0.21966,0.3009 0.3761,0.39119 0.15753,0.0902 0.32884,0.13543 0.5137,0.13543 0.18743,0 0.35946,-0.0452 0.5158,-0.13543 0.15754,-0.0902 0.28211,-0.22019 0.37397,-0.39119 0.0913,-0.17183 0.13752,-0.37449 0.13752,-0.60824 z m 0.99186,0 c 0,-0.30947 0.0624,-0.58084 0.18691,-0.81457 0.12582,-0.23474 0.29877,-0.41694 0.51799,-0.5459 0.21914,-0.12894 0.46316,-0.19341 0.73289,-0.19341 0.26651,0 0.49701,0.0575 0.69205,0.17183 0.19601,0.11334 0.34229,0.25683 0.43847,0.42986 v -0.55235 h 0.50723 v 3.03259 h -0.50723 v -0.56525 c -0.1006,0.17781 -0.2493,0.32453 -0.44705,0.4406 -0.19782,0.1162 -0.42718,0.17417 -0.68776,0.17417 -0.26973,0 -0.51315,-0.0655 -0.73076,-0.19783 -0.2181,-0.13335 -0.39009,-0.31914 -0.51583,-0.5588 -0.12478,-0.24072 -0.18691,-0.51422 -0.18691,-0.82102 z m 2.56839,0.005 c 0,-0.22876 -0.0468,-0.42822 -0.13986,-0.59748 -0.0918,-0.17027 -0.21654,-0.3009 -0.37397,-0.39116 -0.15623,-0.0902 -0.3283,-0.13543 -0.5158,-0.13543 -0.18925,0 -0.36108,0.0445 -0.51583,0.13336 -0.15468,0.0892 -0.27886,0.21862 -0.37182,0.38902 -0.0918,0.16923 -0.13751,0.3675 -0.13751,0.59532 0,0.2337 0.0457,0.43631 0.13751,0.60825 0.0931,0.17079 0.21707,0.3009 0.37182,0.39115 0.15467,0.0902 0.32668,0.13544 0.51583,0.13544 0.18742,0 0.35946,-0.0452 0.5158,-0.13544 0.15753,-0.0902 0.2821,-0.22018 0.37397,-0.39115 0.0931,-0.17183 0.13986,-0.37236 0.13986,-0.6018 z m 1.865,-1.01874 c 0.0871,-0.17313 0.21342,-0.30786 0.37829,-0.40405 0.16429,-0.0957 0.36427,-0.14401 0.59963,-0.14401 v 0.52012 h -0.13101 c -0.5647,0 -0.84681,0.30682 -0.84681,0.91988 v 1.64848 h -0.50507 v -3.03259 h 0.50507 z m 2.17398,-0.0775 v 1.7882 c 0,0.14766 0.0312,0.25242 0.0946,0.3138 0.0629,0.06 0.17183,0.0902 0.32669,0.0902 h 0.36966 v 0.42555 h -0.4535 c -0.28101,0 -0.49162,-0.0645 -0.63187,-0.19341 -0.13908,-0.12894 -0.20848,-0.34064 -0.20848,-0.63616 v -1.78821 h -0.39332 v -0.41479 h 0.39332 v -0.76299 h 0.50293 v 0.76299 h 0.79092 v 0.41479 z m 2.87838,-0.47068 c 0.36808,0 0.66682,0.11178 0.89625,0.33529 0.22902,0.22356 0.3439,0.54539 0.3439,0.96501 v 1.78818 h -0.49865 v -1.71511 c 0,-0.30196 -0.0762,-0.53353 -0.22772,-0.69421 -0.15051,-0.16013 -0.35676,-0.24072 -0.61898,-0.24072 -0.26651,0 -0.47819,0.0832 -0.63403,0.2493 -0.15649,0.16507 -0.23422,0.4062 -0.23422,0.72429 v 1.67642 h -0.50507 v -3.03259 h 0.50507 v 0.432 c 0.0988,-0.15468 0.23422,-0.27402 0.40621,-0.35892 0.17183,-0.0861 0.36107,-0.12894 0.5674,-0.12894 z m 4.83102,1.45505 c 0,0.0962 -0.005,0.19783 -0.0182,0.30519 h -2.42437 c 0.0182,0.29983 0.12088,0.53301 0.30735,0.70066 0.18586,0.16767 0.41265,0.25137 0.67916,0.25137 0.21602,0 0.39762,-0.0504 0.54377,-0.15259 0.1461,-0.10164 0.24826,-0.23682 0.30735,-0.40621 h 0.54161 c -0.0806,0.29123 -0.24227,0.52821 -0.48572,0.71142 -0.24384,0.18223 -0.54594,0.27296 -0.90701,0.27296 -0.28798,0 -0.54591,-0.0645 -0.77374,-0.19341 -0.22668,-0.12894 -0.40404,-0.31218 -0.53301,-0.55022 -0.12894,-0.23734 -0.19341,-0.51368 -0.19341,-0.82747 0,-0.31379 0.0624,-0.5889 0.18691,-0.82531 0.12582,-0.23629 0.30199,-0.41748 0.52873,-0.54374 0.22772,-0.12738 0.48895,-0.19133 0.78446,-0.19133 0.2864,0 0.54001,0.0634 0.76084,0.18925 0.222,0.12477 0.39334,0.29658 0.5137,0.51583 0.12036,0.21914 0.18067,0.46745 0.18067,0.74362 z m -0.52012,-0.10528 c 0,-0.19029 -0.0429,-0.35518 -0.12894,-0.49433 -0.085,-0.13856 -0.1999,-0.24384 -0.34602,-0.31595 -0.14506,-0.0715 -0.30628,-0.10737 -0.4836,-0.10737 -0.25372,0 -0.47016,0.0816 -0.64906,0.24514 -0.17937,0.16221 -0.28156,0.38632 -0.30737,0.67271 z m 1.68823,-0.80168 c 0.0871,-0.17313 0.21342,-0.30787 0.37826,-0.40405 0.16455,-0.0957 0.3643,-0.14401 0.59967,-0.14401 v 0.52011 h -0.13102 c -0.56473,0 -0.84681,0.30683 -0.84681,0.91988 v 1.64849 h -0.50506 v -3.03259 h 0.50506 z m 2.63392,2.58986 c -0.23214,0 -0.4406,-0.0398 -0.62543,-0.11828 -0.18482,-0.0801 -0.331,-0.19133 -0.43846,-0.33313 -0.10632,-0.14194 -0.16481,-0.30522 -0.17625,-0.49005 h 0.52012 c 0.013,0.15208 0.085,0.27618 0.2129,0.37182 0.12738,0.0962 0.29445,0.14401 0.50078,0.14401 0.19185,0 0.3428,-0.0418 0.45349,-0.12685 0.11178,-0.0861 0.16767,-0.19341 0.16767,-0.3224 0,-0.13154 -0.0595,-0.23006 -0.17833,-0.29445 -0.11776,-0.0645 -0.30035,-0.1279 -0.54804,-0.19133 -0.22512,-0.0585 -0.40836,-0.11828 -0.55022,-0.17833 -0.14193,-0.0614 -0.26383,-0.15259 -0.36536,-0.27295 -0.10217,-0.12036 -0.1526,-0.27779 -0.1526,-0.47284 0,-0.15467 0.0457,-0.29658 0.13752,-0.42554 0.0931,-0.12998 0.22408,-0.23266 0.39331,-0.30735 0.17027,-0.0756 0.3643,-0.11386 0.58246,-0.11386 0.33529,0 0.60608,0.0855 0.81241,0.2558 0.20744,0.16923 0.31863,0.40137 0.33313,0.69634 h -0.50291 c -0.013,-0.15909 -0.0751,-0.28637 -0.19132,-0.38255 -0.11594,-0.0957 -0.27241,-0.14402 -0.46852,-0.14402 -0.18067,0 -0.32456,0.0387 -0.43202,0.11594 -0.10632,0.0775 -0.1591,0.17937 -0.1591,0.30519 0,0.0988 0.0322,0.18041 0.0967,0.24514 0.0645,0.0645 0.14505,0.11594 0.2428,0.15467 0.0972,0.0387 0.23266,0.0827 0.4062,0.13102 0.21759,0.059 0.39441,0.11724 0.53088,0.17417 0.13752,0.0575 0.25476,0.1435 0.35248,0.25788 0.0972,0.1149 0.14843,0.26383 0.15259,0.44704 0,0.16663 -0.0468,0.31595 -0.13959,0.44921 -0.092,0.13335 -0.22149,0.23812 -0.38903,0.31379 -0.16767,0.0741 -0.36053,0.11178 -0.57814,0.11178 z m 3.3206,-3.13792 c 0.22772,0 0.43415,0.0494 0.619,0.14843 0.18483,0.0977 0.32937,0.24462 0.43413,0.4406 0.1058,0.19497 0.15909,0.43199 0.15909,0.71139 v 1.78819 h -0.49865 v -1.71511 c 0,-0.30197 -0.0764,-0.53354 -0.22772,-0.69421 -0.15051,-0.16014 -0.35676,-0.24072 -0.61898,-0.24072 -0.2665,0 -0.47821,0.0832 -0.63403,0.24929 -0.15623,0.16508 -0.23422,0.40621 -0.23422,0.72429 v 1.67643 h -0.50507 v -4.09433 h 0.50507 v 1.49373 c 0.0988,-0.15467 0.23526,-0.27402 0.41052,-0.35892 0.17625,-0.086 0.37288,-0.12893 0.59104,-0.12893 z m 2.2954,-0.43631 c -0.0962,0 -0.17729,-0.0328 -0.24279,-0.0988 -0.066,-0.0671 -0.0988,-0.14895 -0.0988,-0.24514 0,-0.0957 0.0328,-0.17676 0.0988,-0.24279 0.0655,-0.0673 0.14661,-0.10113 0.24279,-0.10113 0.0931,0 0.17183,0.0338 0.2363,0.10113 0.0645,0.066 0.0967,0.14713 0.0967,0.24279 0,0.0962 -0.0322,0.17781 -0.0967,0.24514 -0.0645,0.066 -0.14349,0.0988 -0.2363,0.0988 z m 0.24514,0.4922 v 3.03259 h -0.50509 v -3.03259 z m 1.36155,0.5588 c 0.0988,-0.17313 0.24721,-0.31809 0.44488,-0.43416 0.19783,-0.1162 0.42664,-0.17417 0.68777,-0.17417 0.26921,0 0.51367,0.0645 0.73292,0.19341 0.22018,0.12894 0.39328,0.31112 0.51796,0.54591 0.12582,0.2337 0.18899,0.50509 0.18899,0.81457 0,0.30682 -0.0634,0.5803 -0.18899,0.82102 -0.12478,0.23968 -0.29768,0.42557 -0.51796,0.55882 -0.21915,0.13206 -0.46371,0.19783 -0.73292,0.19783 -0.25788,0 -0.48573,-0.058 -0.68345,-0.17417 -0.19653,-0.11594 -0.34605,-0.26061 -0.4492,-0.43415 v 1.99666 h -0.50507 v -4.47045 h 0.50507 z m 2.05684,0.94566 c 0,-0.22772 -0.0463,-0.42609 -0.13751,-0.59532 -0.0918,-0.17027 -0.21655,-0.29983 -0.37395,-0.38902 -0.15649,-0.0887 -0.32832,-0.13336 -0.51583,-0.13336 -0.18483,0 -0.35624,0.0452 -0.51367,0.13543 -0.1565,0.0902 -0.28156,0.22123 -0.37613,0.39332 -0.0936,0.17183 -0.1396,0.37072 -0.1396,0.59532 0,0.22954 0.0463,0.42986 0.1396,0.6018 0.0946,0.17079 0.21966,0.3009 0.37613,0.39115 0.15753,0.0902 0.32882,0.13544 0.51367,0.13544 0.18743,0 0.35944,-0.0452 0.51583,-0.13544 0.15753,-0.0902 0.28208,-0.22018 0.37395,-0.39115 0.0912,-0.17183 0.13751,-0.37449 0.13751,-0.60825 z m 6.69708,-1.50446 -0.94566,3.03259 h -0.52012 l -0.73077,-2.40717 -0.73073,2.40717 h -0.52012 l -0.95214,-3.03259 h 0.51367 l 0.69853,2.54473 0.75223,-2.54473 h 0.51368 l 0.73718,2.55115 0.68563,-2.55115 z m 0.75762,-0.4922 c -0.0962,0 -0.17729,-0.0328 -0.2428,-0.0988 -0.066,-0.0671 -0.0988,-0.14895 -0.0988,-0.24514 0,-0.0957 0.0328,-0.17676 0.0988,-0.24279 0.0655,-0.0673 0.14661,-0.10113 0.2428,-0.10113 0.0931,0 0.17183,0.0338 0.2363,0.10113 0.0645,0.066 0.0967,0.14713 0.0967,0.24279 0,0.0962 -0.0322,0.17781 -0.0967,0.24514 -0.0645,0.066 -0.1435,0.0988 -0.2363,0.0988 z m 0.24487,0.4922 v 3.03259 h -0.50506 v -3.03259 z m 1.47117,0.41478 v 1.78821 c 0,0.14765 0.0312,0.25242 0.0946,0.31379 0.0629,0.0601 0.17184,0.0902 0.32669,0.0902 h 0.36968 v 0.42554 h -0.45349 c -0.28101,0 -0.49165,-0.0645 -0.6319,-0.1934 -0.13907,-0.12894 -0.20848,-0.34065 -0.20848,-0.63617 v -1.7882 h -0.39332 v -0.41479 h 0.39332 v -0.763 h 0.50291 v 0.763 h 0.79094 v 0.41479 z m 2.90636,-0.47067 c 0.22772,0 0.43412,0.0494 0.61898,0.14843 0.18483,0.0977 0.32936,0.24462 0.43415,0.4406 0.1058,0.19497 0.15909,0.43199 0.15909,0.71139 v 1.78819 h -0.49865 v -1.71511 c 0,-0.30197 -0.0764,-0.53354 -0.22772,-0.69421 -0.15051,-0.16014 -0.35679,-0.24072 -0.619,-0.24072 -0.26651,0 -0.47819,0.0832 -0.63403,0.24929 -0.15624,0.16508 -0.23422,0.40621 -0.23422,0.72429 v 1.67643 h -0.5051 v -4.09433 h 0.5051 v 1.49373 c 0.0988,-0.15467 0.23526,-0.27402 0.41049,-0.35892 0.17625,-0.086 0.37291,-0.12893 0.59106,-0.12893 z m 0,0"
       style="fill:#ffffff;fill-opacity:1;fill-rule:nonzero;stroke:none;stroke-width:0.183403"
       aria-label="In partnership with" />
    <g
       id="g2"
       transform="matrix(0.64011983,0,0,0.64011983,63.290189,-225.46973)">
      <path
         id="path9-1"
         d="m 0,0 h 5.314 c 4.492,0 8.606,0.225 8.606,5.39 0,4.34 -3.74,5.012 -7.185,5.012 H 0 Z M -5.092,14.52 H 7.56 c 7.782,0 11.452,-3.068 11.452,-9.355 0,-5.914 -3.743,-8.385 -8.61,-8.908 l 9.359,-14.444 H 14.295 L 5.39,-4.118 H 0 V -18.187 H -5.092 Z M 5.837,-25.747 c 12.95,0 22.978,10.329 22.978,24.024 0,13.397 -10.028,23.727 -22.978,23.727 -13.172,0 -23.126,-10.33 -23.126,-23.727 0,-13.695 9.954,-24.024 23.126,-24.024 m 0,51.868 c 15.269,0 28.069,-12.051 28.069,-27.844 0,-16.093 -12.8,-28.142 -28.069,-28.142 -15.344,0 -28.218,12.049 -28.218,28.142 0,15.793 12.874,27.844 28.218,27.844"
         style="fill:#ffffff;fill-opacity:1;fill-rule:nonzero;stroke:none"
         transform="matrix(0.09320503,0,0,-0.09320503,338.55221,583.20067)"
         clip-path="url(#clipPath10-4)" />
      <path
         id="path11-2"
         d="m 0,0 c 0,-15.64 -12.687,-28.311 -28.342,-28.311 h -996.882 c -15.651,0 -28.346,12.671 -28.346,28.311 v 113.446 c 0,15.632 12.695,28.311 28.346,28.311 H -28.342 C -12.687,141.757 0,129.078 0,113.446 Z"
         style="fill:#ffffff;fill-opacity:1;fill-rule:nonzero;stroke:none"
         transform="matrix(0.09320503,0,0,-0.09320503,334.60626,595.47357)"
         clip-path="url(#clipPath12-8)" />
      <path
         id="path13-3"
         d="m 0,0 h 13.658 c 8.995,0 18.803,0.457 18.803,11.627 0,9.947 -8.036,10.558 -16.717,10.558 L 0,22.185 Z m -35.353,50.189 h 59.134 c 31.334,0 42.101,-21.881 42.101,-37.336 0,-26.321 -18.643,-38.866 -44.993,-38.866 H 0 v -33.054 h -35.353 z"
         style="fill:#000000;fill-opacity:1;fill-rule:nonzero;stroke:none"
         transform="matrix(0.09320503,0,0,-0.09320503,243.92486,589.5548)"
         clip-path="url(#clipPath14-4)" />
      <path
         id="path15-3"
         d="m 207.092,198.695 h 31.817 V 89.439 h -31.817 z"
         style="fill:#000000;fill-opacity:1;fill-rule:nonzero;stroke:none"
         transform="matrix(0.09320503,0,0,-0.09320503,231.12419,603.39634)"
         clip-path="url(#clipPath16-5)" />
      <path
         id="path17-4"
         d="m 0,0 c -3.857,-1.834 -8.198,-2.752 -12.538,-3.824 -7.071,-1.684 -10.767,-3.214 -10.767,-8.568 0,-3.674 4.179,-7.348 9.969,-7.348 7.224,0 12.853,3.981 13.336,12.395 z m 30.529,-17.903 c 0,-5.965 0.161,-12.699 3.857,-17.75 H 1.925 c -0.805,2.295 -1.288,5.204 -1.127,7.499 H 0.483 c -6.909,-7.345 -16.556,-9.49 -26.84,-9.49 -16.066,0 -29.402,7.345 -29.402,24.026 0,25.248 31.012,24.026 47.078,27.086 C -4.34,14.233 0,15.455 0,20.505 c 0,5.358 -5.307,7.345 -10.445,7.345 -9.639,0 -11.894,-4.743 -11.894,-8.11 h -29.563 c 0.805,22.496 23.298,26.013 42.899,26.013 39.854,0 39.532,-15.758 39.532,-31.063 z"
         style="fill:#000000;fill-opacity:1;fill-rule:nonzero;stroke:none"
         transform="matrix(0.09320503,0,0,-0.09320503,259.02403,591.73716)"
         clip-path="url(#clipPath18-1)" />
      <path
         id="path19-1"
         d="m 0,0 c -0.161,2.602 -1.603,4.589 -3.696,5.969 -1.925,1.53 -4.333,2.295 -7.063,2.295 -4.502,0 -9.647,-1.073 -9.647,-6.123 0,-2.295 1.932,-3.367 3.696,-4.132 5.145,-1.987 17.354,-2.906 27.96,-6.119 10.767,-3.213 19.923,-9.182 19.923,-22.189 0,-22.034 -22.17,-28.003 -42.416,-28.003 -19.608,0 -41.134,7.498 -41.618,28.003 h 30.369 c 0.161,-2.602 1.449,-5.05 3.857,-7.037 1.764,-1.53 4.655,-2.295 8.512,-2.295 4.18,0 10.767,1.53 10.767,6.119 0,4.589 -2.73,5.969 -17.515,8.418 -24.264,3.824 -34.065,11.323 -34.065,24.94 0,20.048 22.661,25.248 39.371,25.248 17.999,0 39.686,-4.742 40.491,-25.094 z"
         style="fill:#000000;fill-opacity:1;fill-rule:nonzero;stroke:none"
         transform="matrix(0.09320503,0,0,-0.09320503,267.0522,589.81165)"
         clip-path="url(#clipPath20-27)" />
      <path
         id="path21-1"
         d="m 0,0 c -0.161,2.602 -1.603,4.589 -3.696,5.969 -1.925,1.53 -4.333,2.295 -7.063,2.295 -4.502,0 -9.647,-1.073 -9.647,-6.123 0,-2.295 1.932,-3.367 3.696,-4.132 5.145,-1.987 17.354,-2.906 27.96,-6.119 10.767,-3.213 19.923,-9.182 19.923,-22.189 0,-22.034 -22.17,-28.003 -42.416,-28.003 -19.608,0 -41.134,7.498 -41.618,28.003 h 30.369 c 0.161,-2.602 1.449,-5.05 3.857,-7.037 1.764,-1.53 4.655,-2.295 8.512,-2.295 4.18,0 10.767,1.53 10.767,6.119 0,4.589 -2.73,5.969 -17.515,8.418 -24.264,3.824 -34.065,11.323 -34.065,24.94 0,20.048 22.661,25.248 39.371,25.248 17.999,0 39.686,-4.742 40.491,-25.094 z"
         style="fill:#000000;fill-opacity:1;fill-rule:nonzero;stroke:none"
         transform="matrix(0.09320503,0,0,-0.09320503,274.91594,589.81165)"
         clip-path="url(#clipPath22-1)" />
      <path
         id="path23"
         d="M 0,0 C 0,7.345 -5.79,13.314 -13.98,13.314 -23.62,13.314 -28.926,8.571 -30.368,0 Z m -30.529,-15.759 c 0.798,-9.182 6.104,-15.454 16.227,-15.454 5.138,0 10.767,1.833 13.336,5.661 H 28.758 C 22.331,-42.69 4.655,-50.65 -14.141,-50.65 c -26.672,0 -46.756,14.997 -46.756,41.472 0,23.103 17.508,41.925 44.026,41.925 33.098,0 47.4,-17.442 47.4,-48.506 z"
         style="fill:#000000;fill-opacity:1;fill-rule:nonzero;stroke:none"
         transform="matrix(0.09320503,0,0,-0.09320503,283.68974,590.52489)"
         clip-path="url(#clipPath24-3)" />
      <path
         id="path25-3"
         d="m 0,0 h 30.536 v -12.703 h 0.315 c 5.146,9.64 11.894,14.69 23.466,14.69 3.052,0 6.104,-0.457 9.318,-1.222 v -26.778 c -3.214,1.069 -6.105,1.987 -12.531,1.987 -12.699,0 -19.287,-6.884 -19.287,-24.022 V -79.419 H 0 Z"
         style="fill:#000000;fill-opacity:1;fill-rule:nonzero;stroke:none"
         transform="matrix(0.09320503,0,0,-0.09320503,286.95544,587.65794)"
         clip-path="url(#clipPath26-2)" />
      <path
         id="path27-8"
         d="m 705.388,198.695 h 35.353 V 89.439 h -35.353 z"
         style="fill:#000000;fill-opacity:1;fill-rule:nonzero;stroke:none"
         transform="matrix(0.09320503,0,0,-0.09320503,231.12419,603.39634)"
         clip-path="url(#clipPath28-68)" />
      <path
         id="path29-7"
         d="m 0,0 h 30.697 v -10.101 h 0.315 c 5.951,7.956 14.302,12.088 27.162,12.088 14.939,0 28.597,-8.721 28.597,-26.931 V -79.419 H 54.954 v 41.622 c 0,9.182 -1.12,15.608 -10.445,15.608 -5.621,0 -12.692,-2.602 -12.692,-15.301 V -79.419 H 0 Z"
         style="fill:#000000;fill-opacity:1;fill-rule:nonzero;stroke:none"
         transform="matrix(0.09320503,0,0,-0.09320503,301.09408,587.65794)"
         clip-path="url(#clipPath30-7)" />
      <path
         id="path31"
         d="m 0,0 c -11.404,0 -13.98,-10.251 -13.98,-19.587 0,-9.332 2.576,-19.74 13.98,-19.74 11.411,0 13.98,10.408 13.98,19.74 C 13.98,-10.251 11.411,0 0,0 M 44.67,-59.371 H 13.98 v 8.721 h -0.322 c -3.857,-4.897 -8.996,-10.712 -24.425,-10.712 -23.619,0 -35.023,22.035 -35.023,42.083 0,18.822 7.546,41.314 35.506,41.314 9.64,0 17.838,-3.978 22.822,-10.712 h 0.315 V 49.885 H 44.67 Z"
         style="fill:#000000;fill-opacity:1;fill-rule:nonzero;stroke:none"
         transform="matrix(0.09320503,0,0,-0.09320503,314.09207,589.52649)"
         clip-path="url(#clipPath32-8)" />
      <path
         id="path33"
         d="m 944.497,168.858 h 31.817 V 89.439 h -31.817 z m 31.817,8.567 h -31.817 v 21.27 h 31.817 z"
         style="fill:#000000;fill-opacity:1;fill-rule:nonzero;stroke:none"
         transform="matrix(0.09320503,0,0,-0.09320503,231.12419,603.39634)"
         clip-path="url(#clipPath34-2)" />
      <path
         id="path35"
         d="m 0,0 c -3.857,-1.834 -8.198,-2.752 -12.538,-3.824 -7.071,-1.684 -10.767,-3.214 -10.767,-8.568 0,-3.674 4.18,-7.348 9.969,-7.348 7.224,0 12.853,3.981 13.336,12.395 z m 30.529,-17.903 c 0,-5.965 0.161,-12.699 3.857,-17.75 H 1.925 c -0.805,2.295 -1.288,5.204 -1.127,7.499 H 0.483 c -6.909,-7.345 -16.556,-9.49 -26.84,-9.49 -16.066,0 -29.402,7.345 -29.402,24.026 0,25.248 31.012,24.026 47.078,27.086 C -4.34,14.233 0,15.455 0,20.505 c 0,5.358 -5.307,7.345 -10.445,7.345 -9.639,0 -11.894,-4.743 -11.894,-8.11 h -29.563 c 0.806,22.496 23.298,26.013 42.899,26.013 39.854,0 39.532,-15.758 39.532,-31.063 z"
         style="fill:#000000;fill-opacity:1;fill-rule:nonzero;stroke:none"
         transform="matrix(0.09320503,0,0,-0.09320503,327.92987,591.73716)"
         clip-path="url(#clipPath36-5)" />
    </g>
  </g>
</svg>
